<svg width="181" height="135" viewBox="0 0 181 135" fill="none" xmlns="http://www.w3.org/2000/svg">
<path fill-rule="evenodd" clip-rule="evenodd" d="M143.104 18.5596C151.244 20.8327 156.853 26.4765 162.346 32.6332C180.358 52.8449 182.174 78.3342 162.192 98.4917C131.141 129.737 72.5064 141.579 33.6566 121.307C25.0501 116.829 13.1412 111.911 6.71814 98.0432C0.742073 85.148 4.03119 72.1531 10.6218 60.919C17.3517 49.3944 27.5198 39.6805 35.2227 33.6984C68.8856 7.61129 128.43 -9.59478 172.917 16.5227C173.836 17.0399 174.935 16.7527 175.424 15.8929C175.913 15.0332 175.643 13.9326 174.794 13.4313C129 -13.4499 67.6258 4.00181 32.9789 30.8486C23.3905 38.3115 10.1032 51.3802 3.73528 66.5598C-0.593149 76.94 -1.73791 88.2878 3.4236 99.5426C10.2365 114.308 22.8451 119.733 31.9793 124.495C72.0853 145.429 132.706 133.301 164.729 101.021C186.232 79.3609 184.401 51.9659 165.029 30.2385C159.132 23.5729 152.939 17.566 144.103 15.0997C143.129 14.8284 142.117 15.384 141.899 16.352C141.611 17.3042 142.2 18.3042 143.104 18.5596Z" fill="#F7F0E0"/>
</svg>
