<svg width="24" height="24" viewBox="0 0 24 24" fill="none" xmlns="http://www.w3.org/2000/svg">
<path d="M20.9785 14.0709C21.0021 14.1665 21.0065 14.2659 20.9916 14.3633C20.9768 14.4607 20.9428 14.5541 20.8918 14.6384C20.8408 14.7227 20.7737 14.7961 20.6943 14.8544C20.6149 14.9127 20.5248 14.9549 20.4291 14.9784L18.1191 15.5409L18.7248 17.8012C18.7503 17.8963 18.7568 17.9956 18.7439 18.0933C18.7311 18.191 18.6991 18.2852 18.6498 18.3705C18.6005 18.4558 18.5349 18.5306 18.4568 18.5906C18.3786 18.6505 18.2893 18.6945 18.1941 18.7199C18.131 18.7381 18.0658 18.7482 18.0001 18.7499C17.8351 18.7498 17.6748 18.6952 17.5439 18.5947C17.4131 18.4942 17.319 18.3534 17.2763 18.194L16.5526 15.494L12.7501 13.2993V17.6896L14.7807 19.7193C14.8504 19.789 14.9057 19.8717 14.9434 19.9628C14.9811 20.0538 15.0005 20.1514 15.0005 20.2499C15.0005 20.3485 14.9811 20.4461 14.9434 20.5371C14.9057 20.6281 14.8504 20.7109 14.7807 20.7806C14.711 20.8502 14.6283 20.9055 14.5373 20.9432C14.4462 20.9809 14.3486 21.0003 14.2501 21.0003C14.1515 21.0003 14.054 20.9809 13.9629 20.9432C13.8719 20.9055 13.7891 20.8502 13.7195 20.7806L12.0001 19.0602L10.2807 20.7806C10.211 20.8502 10.1283 20.9055 10.0373 20.9432C9.94621 20.9809 9.84863 21.0003 9.75009 21.0003C9.65154 21.0003 9.55396 20.9809 9.46291 20.9432C9.37187 20.9055 9.28914 20.8502 9.21946 20.7806C9.14978 20.7109 9.0945 20.6281 9.05679 20.5371C9.01908 20.4461 8.99967 20.3485 8.99967 20.2499C8.99967 20.1514 9.01908 20.0538 9.05679 19.9628C9.0945 19.8717 9.14978 19.789 9.21946 19.7193L11.2501 17.6896V13.2993L7.44852 15.494L6.72477 18.194C6.68204 18.3535 6.58785 18.4945 6.45682 18.595C6.32578 18.6955 6.16524 18.75 6.00009 18.7499C5.93427 18.7498 5.86874 18.7413 5.80509 18.7246C5.7099 18.6992 5.62067 18.6552 5.54248 18.5952C5.4643 18.5353 5.39869 18.4605 5.34941 18.3752C5.30014 18.2899 5.26815 18.1957 5.25529 18.098C5.24243 18.0003 5.24895 17.901 5.27446 17.8059L5.88009 15.5456L3.57009 14.9831C3.37689 14.9356 3.21048 14.8133 3.10745 14.6431C3.00442 14.4729 2.97322 14.2687 3.02071 14.0756C3.0682 13.8824 3.19049 13.7159 3.36068 13.6129C3.53087 13.5099 3.73502 13.4787 3.92821 13.5262L6.68915 14.204L10.5001 11.9999L6.69009 9.80055L3.92915 10.4784C3.87057 10.4929 3.81043 10.5001 3.75009 10.4999C3.5667 10.5001 3.38963 10.433 3.25234 10.3114C3.11505 10.1898 3.02706 10.0222 3.00501 9.84011C2.98296 9.65805 3.02838 9.47423 3.13267 9.32339C3.23697 9.17255 3.39291 9.06515 3.57102 9.02149L5.88102 8.45899L5.2754 6.19399C5.22393 6.00179 5.25092 5.79702 5.35043 5.62472C5.44994 5.45242 5.61382 5.32671 5.80602 5.27524C5.99822 5.22377 6.203 5.25076 6.3753 5.35027C6.54759 5.44979 6.67331 5.61367 6.72477 5.80587L7.44852 8.50587L11.2501 10.7006V6.31024L9.21946 4.28055C9.07873 4.13982 8.99967 3.94895 8.99967 3.74993C8.99967 3.65138 9.01908 3.5538 9.05679 3.46276C9.0945 3.37171 9.14978 3.28899 9.21946 3.2193C9.28914 3.14962 9.37187 3.09435 9.46291 3.05663C9.55396 3.01892 9.65154 2.99951 9.75009 2.99951C9.94911 2.99951 10.14 3.07857 10.2807 3.2193L12.0001 4.93962L13.7195 3.2193C13.8602 3.07857 14.0511 2.99951 14.2501 2.99951C14.4491 2.99951 14.64 3.07857 14.7807 3.2193C14.9214 3.36003 15.0005 3.55091 15.0005 3.74993C15.0005 3.94895 14.9214 4.13982 14.7807 4.28055L12.7501 6.31024V10.7006L16.5516 8.50587L17.2754 5.80587C17.3269 5.61367 17.4526 5.44979 17.6249 5.35027C17.7972 5.25076 18.002 5.22377 18.1941 5.27524C18.3863 5.32671 18.5502 5.45242 18.6497 5.62472C18.7493 5.79702 18.7762 6.00179 18.7248 6.19399L18.1191 8.4543L20.4291 9.0168C20.6122 9.0559 20.7741 9.16206 20.8829 9.31441C20.9917 9.46677 21.0395 9.6543 21.0171 9.84016C20.9947 10.026 20.9035 10.1968 20.7616 10.3189C20.6197 10.4409 20.4372 10.5055 20.2501 10.4999C20.1897 10.5001 20.1296 10.4929 20.071 10.4784L17.3101 9.80055L13.5001 11.9999L17.3101 14.1993L20.071 13.5215C20.1667 13.498 20.266 13.4935 20.3634 13.5084C20.4608 13.5233 20.5543 13.5572 20.6386 13.6082C20.7229 13.6592 20.7962 13.7263 20.8546 13.8057C20.9129 13.8851 20.955 13.9752 20.9785 14.0709Z" fill="#594a3a"/>
</svg>
