<svg width="18" height="20" viewBox="0 0 18 20" fill="none" xmlns="http://www.w3.org/2000/svg">
<path d="M13.0791 0.0757859C12.9529 0.0143283 12.8121 -0.0105204 12.6726 0.00406327C12.533 0.018647 12.4004 0.0720784 12.2897 0.158286L5.74219 5.24985H1.5C1.10218 5.24985 0.720644 5.40788 0.43934 5.68919C0.158035 5.97049 0 6.35202 0 6.74985V12.7498C0 13.1477 0.158035 13.5292 0.43934 13.8105C0.720644 14.0918 1.10218 14.2498 1.5 14.2498H5.74219L12.2897 19.3414C12.4005 19.4275 12.5332 19.4809 12.6728 19.4953C12.8124 19.5097 12.9533 19.4847 13.0793 19.4231C13.2054 19.3615 13.3117 19.2657 13.3861 19.1467C13.4604 19.0277 13.4999 18.8902 13.5 18.7498V0.749848C13.5 0.609343 13.4606 0.471658 13.3861 0.352482C13.3117 0.233306 13.2053 0.137432 13.0791 0.0757859ZM12 17.2161L6.46031 12.9083C6.32897 12.8054 6.16686 12.7496 6 12.7498H1.5V6.74985H6C6.16686 6.75012 6.32897 6.69432 6.46031 6.59141L12 2.2836V17.2161ZM17.25 7.49985V11.9998C17.25 12.1988 17.171 12.3895 17.0303 12.5302C16.8897 12.6708 16.6989 12.7498 16.5 12.7498C16.3011 12.7498 16.1103 12.6708 15.9697 12.5302C15.829 12.3895 15.75 12.1988 15.75 11.9998V7.49985C15.75 7.30094 15.829 7.11017 15.9697 6.96952C16.1103 6.82887 16.3011 6.74985 16.5 6.74985C16.6989 6.74985 16.8897 6.82887 17.0303 6.96952C17.171 7.11017 17.25 7.30094 17.25 7.49985Z" fill="#322B2B"/>
</svg>
