<svg width="24" height="24" viewBox="0 0 24 24" fill="none" xmlns="http://www.w3.org/2000/svg">
<path d="M15.3291 2.32603C15.2029 2.26457 15.0621 2.23972 14.9226 2.25431C14.783 2.26889 14.6504 2.32232 14.5397 2.40853L7.99219 7.50009H3.75C3.35218 7.50009 2.97064 7.65813 2.68934 7.93943C2.40804 8.22074 2.25 8.60227 2.25 9.00009V15.0001C2.25 15.3979 2.40804 15.7794 2.68934 16.0608C2.97064 16.3421 3.35218 16.5001 3.75 16.5001H7.99219L14.5397 21.5917C14.6505 21.6778 14.7832 21.7311 14.9228 21.7455C15.0624 21.76 15.2033 21.735 15.3293 21.6733C15.4554 21.6117 15.5617 21.516 15.6361 21.3969C15.7104 21.2779 15.7499 21.1404 15.75 21.0001V3.00009C15.75 2.85959 15.7106 2.7219 15.6361 2.60273C15.5617 2.48355 15.4553 2.38768 15.3291 2.32603ZM14.25 19.4663L8.71031 15.1585C8.57897 15.0556 8.41686 14.9998 8.25 15.0001H3.75V9.00009H8.25C8.41686 9.00036 8.57897 8.94457 8.71031 8.84165L14.25 4.53384V19.4663ZM19.5 9.75009V14.2501C19.5 14.449 19.421 14.6398 19.2803 14.7804C19.1397 14.9211 18.9489 15.0001 18.75 15.0001C18.5511 15.0001 18.3603 14.9211 18.2197 14.7804C18.079 14.6398 18 14.449 18 14.2501V9.75009C18 9.55118 18.079 9.36041 18.2197 9.21976C18.3603 9.07911 18.5511 9.00009 18.75 9.00009C18.9489 9.00009 19.1397 9.07911 19.2803 9.21976C19.421 9.36041 19.5 9.55118 19.5 9.75009Z" fill="#766D6D"/>
</svg>
